<svg width="400" height="222" viewBox="0 0 400 222" fill="none" xmlns="http://www.w3.org/2000/svg">
<path fill-rule="evenodd" clip-rule="evenodd" d="M290.694 7.96505C290.694 7.96505 347.402 -6.48856 400 53.1504C400 53.1504 358.338 -24.5857 290.694 7.96505ZM109.306 213.981C109.306 213.981 52.5929 228.434 0 168.795C0 168.795 41.6623 246.531 109.306 213.981ZM260.921 51.5724C260.921 51.5724 250.96 42.5814 244.161 38.9378C244.161 38.9378 254.73 22.7802 282.421 11.8496C282.421 11.8496 301.926 5.8063 319.711 11.362C319.711 11.362 287.889 13.7892 260.921 51.5724ZM155.839 183.008C149.04 179.365 139.079 170.374 139.079 170.374C112.111 208.157 80.2891 210.584 80.2891 210.584C98.0739 216.14 117.579 210.096 117.579 210.096C145.27 199.166 155.839 183.008 155.839 183.008Z" fill="#E43D39"/>
<path fill-rule="evenodd" clip-rule="evenodd" d="M166.037 32.8227C168.501 30.7591 170.655 28.6484 170.655 28.6484C178.522 21.06 189.453 17.6575 189.453 17.6575C196.755 13.8568 199.684 8.85481 199.72 8.79306V8.79248L199.72 8.79277L199.721 8.79248V8.79306C199.757 8.85481 202.686 13.8568 209.988 17.6575C209.988 17.6575 220.919 21.06 228.786 28.6484C228.786 28.6484 230.865 30.686 233.276 32.7146C251.371 40.4343 266.241 54.2302 275.341 71.614C274.147 72.0907 265.884 77.1752 265.884 77.1752V77.1807C253.524 53.1443 228.561 36.8607 199.725 36.8607C158.671 36.8607 125.266 70.2607 125.266 111.32C125.266 120.284 126.948 129.28 129.863 137.241C125.824 140.551 120.417 143.131 120.417 143.131C116.642 133.499 114.308 122.273 114.308 111.315C114.308 76.1737 135.641 45.919 166.037 32.8227ZM278.568 78.4244C282.414 88.1332 285.143 100.258 285.143 111.32C285.143 146.415 263.865 176.637 233.533 189.761C231.016 191.858 228.786 194.043 228.786 194.043C220.919 201.631 209.988 205.034 209.988 205.034C202.686 208.835 199.757 213.837 199.721 213.898V213.899L199.72 213.899L199.72 213.899V213.898C199.684 213.837 196.755 208.835 189.453 205.034C189.453 205.034 178.522 201.631 170.655 194.043C170.655 194.043 168.547 191.978 166.116 189.936C147.886 182.175 132.957 168.246 123.901 150.621C126.663 149.887 133.386 145.104 133.386 145.104C145.637 169.474 170.643 185.774 199.731 185.774C240.785 185.774 274.19 152.374 274.19 111.315C274.19 102.176 272.251 92.226 269.221 84.128C269.221 84.128 274.629 79.8763 278.574 78.4189L278.568 78.4244ZM159.707 127.713V149.427H146.168V137.367C149.779 135.614 159.707 127.713 159.707 127.713ZM162.901 116.41L159.707 107.194V118.93C159.707 118.93 152.14 125.094 146.168 129.012V72.4521H160.775L173.859 107.54C173.859 107.54 168.681 112.126 162.906 116.41H162.901ZM181.924 99.1896L181.59 51.5059H195.665V86.1332C195.665 86.1332 189.063 93.1901 181.924 99.1896ZM195.665 96.5433V133.811C195.665 133.811 179.228 149.076 175.026 151.415L165.218 123.105C169.021 121.029 176.286 114.065 176.286 114.065L182.121 129.713L181.979 108.679C185.009 106.773 195.665 96.5433 195.665 96.5433ZM195.665 142.934V170.367H181.59L177.568 158.757C188.225 150.753 195.665 142.934 195.665 142.934ZM206.284 72.4963V78.8794C209.566 75.444 214.124 72.4963 214.124 72.4963H206.284ZM252.527 72.4963H222.14C222.14 72.4963 214.059 79.5971 207.259 86.1445H233.12L223.072 108.68C227.756 104.477 244.703 91.6345 244.703 91.6345L252.527 72.4963ZM226.606 135.927L240.61 101.656C240.61 101.656 228.578 111.216 216.968 123.698L204.837 149.575H253.299V135.927H226.606ZM82.6524 110.811C82.765 110.877 87.7346 113.814 91.5154 121.078C91.5154 121.078 94.9179 132.009 102.506 139.876C102.506 139.876 108.993 146.495 110.341 149.804H110.347C110.347 149.804 115.996 129.943 98.5017 110.811C115.995 91.6784 110.347 71.8174 110.347 71.8174H110.341C108.993 75.1267 102.506 81.7453 102.506 81.7453C94.9179 89.6132 91.5154 100.544 91.5154 100.544C87.7346 107.808 82.765 110.744 82.6523 110.81H82.6504L82.6514 110.811L82.6504 110.811H82.6524ZM289.653 150.129C289.653 150.129 284.004 130.267 301.498 111.135H317.349C317.349 111.135 312.308 114.055 308.484 121.402C308.484 121.402 305.082 132.333 297.493 140.201C297.493 140.201 291.006 146.819 289.658 150.129H289.653ZM301.498 111.134C284.004 92.0015 289.653 72.1401 289.653 72.1401H289.658C291.006 75.4494 297.493 82.0681 297.493 82.0681C305.081 89.9359 308.484 100.867 308.484 100.867C312.308 108.214 317.349 111.134 317.349 111.134H301.498Z" fill="white"/>
<path fill-rule="evenodd" clip-rule="evenodd" d="M327.606 68.6941C298.392 32.0121 199.825 130.996 199.825 130.996V130.99L199.825 130.923C105.216 218.863 79.4885 180.844 79.4885 180.844L72.3877 153.252C101.602 189.934 200.169 90.9502 200.169 90.9502V90.9557L200.169 91.0227C294.778 3.08288 320.505 41.1018 320.505 41.1018L327.606 68.6941ZM292.885 70.2773C297.586 68.1945 299.984 68.5068 302.394 68.8205C303.54 68.9698 304.689 69.1194 306.09 69.0117C313.393 68.4528 316.812 64.3271 316.812 64.3271C323.798 65.664 327.65 70.9787 327.65 70.9787C328.68 88.2868 311.388 96.5546 311.388 96.5546C311.388 96.5546 309.903 87.3609 301.581 80.0135C301.581 80.0135 294.535 75.0331 292.88 70.2828L292.885 70.2773ZM97.6057 153.125C100.015 153.439 102.414 153.751 107.114 151.668V151.663C105.476 147.219 99.0984 142.787 99.0984 142.787C91.0278 136.086 88.6116 125.391 88.6116 125.391C88.6116 125.391 71.3199 133.659 72.3499 150.967C72.3499 150.967 76.2017 156.282 83.1874 157.619C83.1874 157.619 86.6063 153.493 93.9098 152.934C95.3104 152.826 96.4593 152.976 97.6056 153.125H97.6056H97.6057Z" fill="#E94535"/>
<path fill-rule="evenodd" clip-rule="evenodd" d="M327.606 68.6996L323.606 53.1502V53.1556C288.174 22.6869 199.852 111.228 199.852 111.228L199.852 111.233C199.127 111.98 119.592 193.831 76.7072 169.646L76.7056 169.639V169.645C76.7061 169.645 76.7067 169.646 76.7072 169.646L79.5875 180.844C79.5875 180.844 105.344 218.907 200.087 130.771L200.087 130.74C205.682 125.178 299.269 33.1193 327.606 68.6996Z" fill="#AA1E11"/>
</svg>
